<svg xmlns="http://www.w3.org/2000/svg" xmlns:xlink="http://www.w3.org/1999/xlink" width="2027" height="1882" viewBox="0 0 2027 1882"><defs><clipPath id="clip-path"><rect id="Rectangle_8" data-name="Rectangle 8" width="2027" height="1882" transform="translate(988.196 914.808)" fill="#fff" stroke="#707070" stroke-width="1"></rect></clipPath><linearGradient id="linear-gradient" x1="0.5" y1="1" x2="0.5" gradientUnits="objectBoundingBox"><stop offset="0" stop-color="gray" stop-opacity="0.251"></stop><stop offset="0.54" stop-color="gray" stop-opacity="0.122"></stop><stop offset="1" stop-color="gray" stop-opacity="0.102"></stop></linearGradient></defs><g id="email" transform="translate(-988.196 -914.808)" clip-path="url(#clip-path)"><g id="Group_5" data-name="Group 5" transform="translate(1163.943 1250.892)"><path id="Path_96" data-name="Path 96" d="M956.878,172.442c-96.478-2.777-188.361-28.718-276.042-57.1S506.114,55.563,411.948,40.528c-60.562-9.67-129.82-11.036-178.619,15.995-46.967,26.013-62.133,70.93-70.29,112.618-6.151,31.35-9.757,64.358,7.067,93.7,11.633,20.357,32.411,37.5,46.749,57.014,49.875,67.92,14.628,151.66-39.435,217.966-25.359,31.1-54.775,60.78-74.347,93.89s-28.587,71.075-11.5,104.81c16.969,33.444,57.407,58.614,101.218,76.31,88.975,35.916,193.829,46.2,296.065,52.027,226.313,12.883,453.847,7.27,680.77,1.716,83.973-2.065,168.324-4.159,250.945-14.977,45.876-6.005,93.236-15.53,126.5-38.533,42.285-29.2,52.754-78.651,24.429-115.265-47.519-61.42-178.852-76.674-212.135-142.587-18.292-36.279.494-76.7,27.06-110.35,57-72.18,152.547-135.506,157.578-218.01,3.446-56.709-42.474-113.418-113.491-140.231-74.434-28.107-177.659-24.574-232.652,21.957C1141.43,156.476,1042.058,174.957,956.878,172.442Z" transform="translate(-82.538 -34.194)" fill="#6c63ff" opacity="0.1"></path><ellipse id="Ellipse_4" data-name="Ellipse 4" cx="422.773" cy="42.634" rx="422.773" ry="42.634" transform="translate(210.394 1123.967)" fill="#6c63ff" opacity="0.1"></ellipse><path id="Path_97" data-name="Path 97" d="M300.936,925.406s-18.758-106.279-88.379-158.945c-29.212-22.1-50.587-52.158-59.923-86.387a260.645,260.645,0,0,1-8.4-49.584" transform="translate(-54.525 236.571)" fill="none" stroke="#535461" stroke-miterlimit="10" stroke-width="2"></path><path id="Path_98" data-name="Path 98" d="M114.974,617.781c5.816,11.385,44.684,34.432,44.684,34.432s4.886-43.055-.974-54.455-20.357-16.155-32.455-10.629S109.114,606.381,114.974,617.781Z" transform="translate(-68.921 215.836)" fill="#6c63ff"></path><path id="Path_99" data-name="Path 99" d="M115.305,675.568c11.487,6.558,57.349,5.976,57.349,5.976s-20.692-38.649-32.135-45.207-26.406-3.1-33.357,7.736S103.833,669.01,115.305,675.568Z" transform="translate(-72.96 237.719)" fill="#6c63ff"></path><path id="Path_100" data-name="Path 100" d="M158.359,750.327c13.407.189,52.681-22.175,52.681-22.175s-38.519-23.5-51.94-23.7-24.458,9.917-24.719,22.582S144.938,750.095,158.359,750.327Z" transform="translate(-58.999 270.153)" fill="#6c63ff"></path><path id="Path_101" data-name="Path 101" d="M200.014,799.632c13.174,2.341,55.895-13.45,55.895-13.45s-33.764-29.343-46.923-31.641-25.883,5.816-28.355,18.321S186.826,797.306,200.014,799.632Z" transform="translate(-38.187 292.723)" fill="#6c63ff"></path><path id="Path_102" data-name="Path 102" d="M198.1,663.058c-4.58,11.909-40.714,38.606-40.714,38.606s-9.568-42.343-4.987-54.252,18.525-18.06,31.132-13.741S202.68,651.164,198.1,663.058Z" transform="translate(-51.38 237.388)" fill="#6c63ff"></path><path id="Path_103" data-name="Path 103" d="M248.857,723.41c-8.143,10.077-51.067,25.345-51.067,25.345s4.362-43.113,12.447-53.176a25.272,25.272,0,0,1,34.055-4.362,22.1,22.1,0,0,1,4.566,32.193Z" transform="translate(-30.204 262.013)" fill="#6c63ff"></path><path id="Path_104" data-name="Path 104" d="M287.331,785.406c-6.223,11.225-45.789,33.124-45.789,33.124s-3.475-43.172,2.748-54.4,20.9-15.559,32.789-9.684S293.54,774.18,287.331,785.406Z" transform="translate(-10.777 291.668)" fill="#6c63ff"></path><path id="Path_105" data-name="Path 105" d="M114.974,617.781c5.816,11.385,44.684,34.432,44.684,34.432s4.886-43.055-.974-54.455-20.357-16.155-32.455-10.629S109.114,606.381,114.974,617.781Z" transform="translate(-68.921 215.836)" opacity="0.25"></path><path id="Path_106" data-name="Path 106" d="M115.305,675.568c11.487,6.558,57.349,5.976,57.349,5.976s-20.692-38.649-32.135-45.207-26.406-3.1-33.357,7.736S103.833,669.01,115.305,675.568Z" transform="translate(-72.96 237.719)" opacity="0.25"></path><path id="Path_107" data-name="Path 107" d="M158.359,750.327c13.407.189,52.681-22.175,52.681-22.175s-38.519-23.5-51.94-23.7-24.458,9.917-24.719,22.582S144.938,750.095,158.359,750.327Z" transform="translate(-58.999 270.153)" opacity="0.25"></path><path id="Path_108" data-name="Path 108" d="M200.014,799.632c13.174,2.341,55.895-13.45,55.895-13.45s-33.764-29.343-46.923-31.641-25.883,5.816-28.355,18.321S186.826,797.306,200.014,799.632Z" transform="translate(-38.187 292.723)" opacity="0.25"></path><path id="Path_109" data-name="Path 109" d="M198.1,663.058c-4.58,11.909-40.714,38.606-40.714,38.606s-9.568-42.343-4.987-54.252,18.525-18.06,31.132-13.741S202.68,651.164,198.1,663.058Z" transform="translate(-51.38 237.388)" opacity="0.25"></path><path id="Path_110" data-name="Path 110" d="M248.857,723.41c-8.143,10.077-51.067,25.345-51.067,25.345s4.362-43.113,12.447-53.176a25.272,25.272,0,0,1,34.055-4.362,22.1,22.1,0,0,1,4.566,32.193Z" transform="translate(-30.204 262.013)" opacity="0.25"></path><path id="Path_111" data-name="Path 111" d="M287.331,785.406c-6.223,11.225-45.789,33.124-45.789,33.124s-3.475-43.172,2.748-54.4,20.9-15.559,32.789-9.684S293.54,774.18,287.331,785.406Z" transform="translate(-10.777 291.668)" opacity="0.25"></path><path id="Path_112" data-name="Path 112" d="M260.539,934.312S289,829.967,247.961,755.169c-17.216-31.379-23.861-67.033-17.7-101.9a261.73,261.73,0,0,1,13.6-48.537" transform="translate(-16.483 224.874)" fill="none" stroke="#535461" stroke-miterlimit="10" stroke-width="2"></path><path id="Path_113" data-name="Path 113" d="M221.335,579.63c.465,12.65,26.072,48.581,26.072,48.581s22.945-37.5,22.48-50.166-11.705-22.567-25.112-22.131S220.855,566.965,221.335,579.63Z" transform="translate(-19.52 202.701)" fill="#6c63ff"></path><path id="Path_114" data-name="Path 114" d="M196.848,632.6C204.525,642.986,246.693,660,246.693,660s-2.327-43.244-10-53.641a25.228,25.228,0,0,0-33.822-5.685,22.146,22.146,0,0,0-6.02,31.931Z" transform="translate(-32.606 221.152)" fill="#6c63ff"></path><path id="Path_115" data-name="Path 115" d="M204.1,717.376c12.185,5.307,57.7-.1,57.7-.1s-25.141-36.236-37.326-41.543-26.61-.291-32.237,11.211S191.925,712.068,204.1,717.376Z" transform="translate(-33.748 256.153)" fill="#6c63ff"></path><path id="Path_116" data-name="Path 116" d="M221.031,778.438c11.066,7.183,56.884,9.088,56.884,9.088s-18.292-39.711-29.343-46.879a25.2,25.2,0,0,0-33.778,5.816,22.146,22.146,0,0,0,6.238,31.975Z" transform="translate(-24.437 284.735)" fill="#6c63ff"></path><path id="Path_117" data-name="Path 117" d="M281.7,652.855c-9.306,9.132-53.8,19.732-53.8,19.732s9.437-42.386,18.729-51.518a25.33,25.33,0,0,1,34.36-.64,22.044,22.044,0,0,1,.712,32.426Z" transform="translate(-16.532 229.095)" fill="#6c63ff"></path><path id="Path_118" data-name="Path 118" d="M302.972,726.517c-11.763,6.093-57.552,3.635-57.552,3.635s22.436-37.806,34.2-43.855,26.537-2.021,32.979,9.088S314.794,720.425,302.972,726.517Z" transform="translate(-8.577 260.636)" fill="#6c63ff"></path><path id="Path_119" data-name="Path 119" d="M311.9,798.715c-10.513,7.881-56.084,12.767-56.084,12.767s15.355-40.816,25.868-48.7a25.272,25.272,0,0,1,34.127,3.708,22.087,22.087,0,0,1-3.911,32.222Z" transform="translate(-3.854 294.382)" fill="#6c63ff"></path><path id="Path_120" data-name="Path 120" d="M1212.789,501.045c.872-2.385-5.671-15.6-5.671-16.257s-6.761-8.026-6.761-12.142-8.957-13-8.957-13-12-4.987-13.3-15.82-14.381-11.066-14.41-11.066h0s0-.989.087-2.486c0-3.374-.1-9.393-1.614-12.68a12.868,12.868,0,0,0-7.43-6.3s-1.309-8.448-3.926-11.051a12.447,12.447,0,0,1-3.068-11.691c1.309-4.115-1.745-14.541-8.085-15.995s-13.523-3.9-13.523-3.9-.713.131-1.745.276l-.872-.276a38.967,38.967,0,0,1-4.595.567,5.6,5.6,0,0,1-3.693-1.221c-2.2-2.385-19.877-6.936-23.149-6.936s-12.665-4.362-12.665-4.362l-9.364-7.154c-2.632-2.007-7.5-10.179-8.216-11.327l-.087-.16h0a39.281,39.281,0,0,1-1.977-5.7h0a51.541,51.541,0,0,0,8.114-11.153c.233-.422.436-.858.64-1.28a5.22,5.22,0,0,0,1.454-.233,1.825,1.825,0,0,0,.567-.218,9.524,9.524,0,0,0,4.638-5.54h0a14.125,14.125,0,0,0,.422-1.454.87.87,0,0,1,.1-.494,4.313,4.313,0,0,0,.2-.989c.058-.334.073-.378.1-.553s.1-.654.145-.989a2.107,2.107,0,0,0,0-.538,8.713,8.713,0,0,1,.16-1.236h0a44.042,44.042,0,0,1,.684-4.58h0c1.309-5.816,4.842-10.847,7.358-16.286h0c.364-.771.7-1.57,1-2.37s.611-1.745.858-2.632l.218-.814c.16-.64.305-1.294.436-1.948a6.142,6.142,0,0,1,.16-.872c.145-.9.276-1.8.349-2.719a33.7,33.7,0,0,0-2.166-15.282c-1.643-4.071-4.072-7.736-5.729-11.807-2.516-6.165-3.17-13.087-6.238-19.019-5.133-9.859-17.231-14.788-27.177-11.08-4.755,1.759-8.87,5.191-13.683,6.732-6.456,2.05-13.348.509-20.023-.422s-14.061-1-19.426,3.359c-6.18,5.017-7.881,14.454-13.683,19.964-2.428,2.312-5.467,3.8-8.041,5.933a13.086,13.086,0,0,0-4.028,5.511,1.909,1.909,0,0,1-.145.465c-.044.16-.1.364-.145.553s-.087.436-.116.654a2.3,2.3,0,0,0,0,.451,7.757,7.757,0,0,0,0,1.163h0a9.443,9.443,0,0,0,.189,1.091q0,.153,0,.305a7.618,7.618,0,0,0,.276.9.809.809,0,0,0,0,.174c.116.334.247.654.378.989l.218.494.174.407a25.272,25.272,0,0,1,2.021,5.031,5.686,5.686,0,0,1-.189,3.33,10.178,10.178,0,0,1-2.428,3.17,45.077,45.077,0,0,0-9.844,15.777c-.247.669-.494,1.338-.712,2.036h0l.305.073a12.391,12.391,0,0,0,1.9.422c.364,0,.727.087,1.105.116a17.086,17.086,0,0,0,4.45-.349c.364-.073.742-.16,1.105-.262a27.435,27.435,0,0,0,4.362-1.614v2.065a51.576,51.576,0,0,0,28.631,46.109,13.751,13.751,0,0,0,.189,1.454c.058.509.1.785.145,1.178l-.582-.567s-3.941-1.948-7.648,3.679-10.687,8.245-10.687,8.245-39.725,6.282-41.252,11.487l-18.554,1.076s-6.558.872-7.27,14.541-4.144,14.962-4.144,14.962-7.634,13.436-6.98,20.357-5.816,10.411-5.816,10.411l-.872,12.345s-7.27-1.076-9.175,7.372-5.453,12.36-5.453,12.36-12.011,9.975-12.665,18.423l-7.416,4.551s-17.245-3.9-21.171-10.833l-1.207-1.134a1.077,1.077,0,0,1-.1-.174.407.407,0,0,0,0,.087c-2.588-2.443-8.056-7.532-7.27-6.369a5.294,5.294,0,0,1,.349,3.49l-1.28-1.454-3.432-3.81s-27.875-26.173-44.247-28.18h0c-.218-.422-1.265-4.537-4.057-1.963a22.756,22.756,0,0,0-.16,33.444l26.1,24.385.669.494,5.613,7.27c-.945,2.268-1.745,4.464-2.4,6.471a.276.276,0,0,1-.073.189c-.131.436-.276.843-.407,1.251l-.131.436c-.116.407-.247.814-.364,1.192s-.131.48-.2.712,0,.276-.116.407c-.611,2.181-1.018,3.853-1.221,4.784l-1.454-.451,1.454.611v.233l-.087.451,1.338.582c7.648,3.33,45.818,20.066,47.781,22.611,2.181,2.806,16.576,11.051,29.678,4.115s15.995-17.565,15.995-17.565,12.65-17.551,13.087-20.153,10.266-5.642,10.266-5.642.872,29.082-4.144,39.667-14.41,57.669-14.41,57.669a6.915,6.915,0,0,1,1.861-.116c-.349,1.7-.552,2.719-.552,2.719a6.488,6.488,0,0,1,2.312,0c-.7,5.351-4.711,30.187-4.711,30.187s-1.309,11.269-3.49,15.166-2.4,24.283-2.4,24.283l-3.49,14.73a28.438,28.438,0,0,0,1.323,2.545h0s3.752,8.317,10.048,12.985a26.6,26.6,0,0,1-1.76,6.747,23.37,23.37,0,0,0-1.745,10.4s-3.708,16.693-3.272,21.462-2.4,16.475-2.4,16.475l-4.057,37.6s-2.617,32.731-1.309,41.63-.887,21.011-.887,21.011,2.617,25.8,1.963,28.616-3.926,14.948-1.963,21.68.887,25.141.887,25.141,1.309,24.269,2.821,32.077-.436,17.783-.436,17.783-1.454,16.678-2.181,16.678-6.325,11.487,5.235,22.771,4.362,9.524,4.362,9.524-9.161-4.551-8.085,4.77c1.047,8.87,2.487,6.558,2.617,6.311l-2.181,7.125,1.454.218-1.265,1.454a33.871,33.871,0,0,1-4.362,4.566c-2.632,1.949-2.908,6.282-2.908,6.282s-16.14,17.565-31.2,26.45c-7.925,4.682-14.759,8.637-17.74,11.909-2.69,2.908-2.254,5.322,3.33,7.169,11.792,3.9,32.513,5.816,47.359.872a55.34,55.34,0,0,0,23.134-14.962s9.393-4.77,18.568-3.039,27.5-10.179,27.5-10.179l-.334-3.083-.974-8.855a6.966,6.966,0,0,1-1.527-5.409,28.075,28.075,0,0,0-.771-7.794c-.145-.858-.32-1.716-.48-2.516l1.672-.305s-2.167-11.066,1.759-13.232,2.821-30.536,2.821-30.536-5-6.5-7.634-7.576-.218-14.541.233-16.271S956,947.738,956,947.738s-1.309-10.615.436-15.166-2.094-22-2.094-22-1.309-2.167,1.105-4.769,1.454-25.8,1.454-25.8-.2-11.705-.2-14.744,2.617-14.09,5.017-17.769.872-15.18.872-15.18h0l.131-.858a8.637,8.637,0,0,1,.2-1.236l.189-1.149a163.716,163.716,0,0,1,4.319-18.917c2.908-9.1,6.107-25.141,6.107-25.141l20.357-52.928.233-.625s9.379,17.347,9.379,33.444c0,0,2.4,19.3,1.745,24.5s1.934,29.561,1.934,29.561,2.835,35.116,2.835,36.643,3.49,28.616,5.685,32.731-2.2,16.693-3.5,17.987.436,33.168.436,33.168-3.272,25.141-3.926,30.347-3.272,25.156-1.091,32.949,1.309,8.884,1.309,8.884,7.867,8.027,3.272,8.724a12,12,0,0,0-8.724,15.806,202.455,202.455,0,0,0,9.611,23.265s1.352-.305,3.606-.756v2.574l.262,12.912s1.454,12.36.654,15.181c-.64,2.065-1.454,11.778-1.934,16.853-.16,1.847-.247,3.083-.247,3.083s0,11.487,24.225,8.027,28.587-13,28.587-13a5.781,5.781,0,0,1,.174-1.192c.363-2.2,1.149-6.849,1.788-9.437.872-3.475-6.979-19.078-6.979-19.078s-1.309-10.615-3.5-13a11.518,11.518,0,0,1-1.745-4.551c-.2-.872-.378-1.788-.523-2.676a16.036,16.036,0,0,1,1.614.291s-1.309-7.59,3.722-9.975,3.708-7.358,3.053-9.539,1.963-14.308,1.963-14.308a7.053,7.053,0,0,1,1.745-6.922c3.068-3.053,5.453-24.283,5.453-24.283l.436-81.937s1.541-14.541-.2-20.357-3.5-17.115-1.105-20.154.218-17.115.218-17.115,0-29.707,3.286-37.064,2.181-53.975,2.181-53.975l.858-30.536s7.14-6.747,5.453-41.921c7.6-.48,16.184-.756,17.449.291,2.4,1.963,17.9,11.924,27.06,5.642,1.963-.872,10.906-8.448,10.906-8.448l-3.839-65c2.4,3.621,3.853,6.034,3.853,6.034,0-9.1,25.752-38.591,25.752-38.591s24.007-30.986,29.241-34.68,15.5-23.193,15.5-23.193a93.942,93.942,0,0,1,5.249-10.833C1219.783,513.841,1211.917,503.43,1212.789,501.045Zm-56.331,22.742c-6.543.654-20.357,15.617-20.517,18.9-.1,1.716-1.556,4.013-2.908,5.816-.1-1.309-.218-2.646-.32-4-1.541-19.15-3.214-42.488-2.457-44.757,1.323-3.9.872-21.448.872-21.448h0l.233-.334c4.362,13.6,18.074,29.634,18.074,29.634s2.4,6.936,5.235,7.154S1156.458,523.787,1156.458,523.787Z" transform="translate(229.951 48.838)" fill="url(#linear-gradient)"></path><path id="Path_121" data-name="Path 121" d="M795.34,437.71s7.954-41.732,33.56-41.95l18.714,38.5-12.476,8.608S808.034,443.73,795.34,437.71Z" transform="translate(241.13 129.985)" fill="#65617d"></path><path id="Path_122" data-name="Path 122" d="M847.614,434.25l-12.476,8.608s-19.078.611-32.717-2.748a39.146,39.146,0,0,1-7.081-2.414,2.383,2.383,0,0,1,.145-.669v-.16a94.14,94.14,0,0,1,4.842-15.326c.8-1.876,1.687-3.81,2.646-5.744,3.752-7.27,9.015-14.279,16.227-17.783a22.059,22.059,0,0,1,8.535-2.225h1.134l.407.858,6.325,13Z" transform="translate(241.13 129.999)" opacity="0.1"></path><path id="Path_123" data-name="Path 123" d="M983.557,578.764s26.9-2.574,29.256-.64,17.638,11.822,26.682,5.584,3.01-27.962,3.01-28.82-.858-31.626-.858-31.626l-16.14-21.724L1005.3,463.471l-41.3-4.1,1.076,60.461-.218,30.972Z" transform="translate(317.715 158.869)" fill="#65617d"></path><path id="Path_124" data-name="Path 124" d="M983.557,578.764s26.9-2.574,29.256-.64,17.638,11.822,26.682,5.584,3.01-27.962,3.01-28.82-.858-31.626-.858-31.626l-16.14-21.724L1005.3,463.471l-41.3-4.1,1.076,60.461-.218,30.972Z" transform="translate(317.715 158.869)" opacity="0.1"></path><path id="Path_125" data-name="Path 125" d="M833.864,407.362s-2.152,26.246-18.5,26.668c0,0-4.639-2.792-10.876-7.445-14.366-10.746-37.152-31.408-30.856-50.631,9.03-27.526,52.914,23.265,52.914,23.265L829.909,403Z" transform="translate(230.786 117.278)" fill="#fbbebe"></path><path id="Path_126" data-name="Path 126" d="M824.324,396.362s-2.152,26.246-18.5,26.668c0,0-4.639-2.792-10.876-7.445L793.57,413.8a21.507,21.507,0,0,0,8.957,2.414,12.112,12.112,0,0,0,11.633-7.372,92.355,92.355,0,0,0,4.522-10.411A30.349,30.349,0,0,0,820.369,392Z" transform="translate(240.326 128.278)" opacity="0.1"></path><path id="Path_127" data-name="Path 127" d="M816.828,444.644l-3.679-4.74-12.389-15.995-6.311-8.157a21.259,21.259,0,0,0,8.957,2.414c4.115.1,8.724-1.454,11.633-7.358a93.948,93.948,0,0,0,4.522-10.426c2.036-5.816,2.007-8.725,1.28-9.786s4.566,3.9,7.11,6.311l.087.087,1.192,1.12.436.872,6.238,12.461v.523C836.517,415.97,838.625,441.081,816.828,444.644Z" transform="translate(240.726 127.573)" fill="#e7effd"></path><path id="Path_128" data-name="Path 128" d="M935.853,819.213s-18.074,11.836-27.1,10.179-18.292,3.025-18.292,3.025a54.5,54.5,0,0,1-22.814,14.846c-14.541,4.944-35.043,3-46.661-.872-5.5-1.832-5.947-4.188-3.3-7.111,2.908-3.257,9.684-7.169,17.449-11.822,14.846-8.812,30.754-26.174,30.754-26.174s.218-4.362,2.806-6.224a33.524,33.524,0,0,0,4.362-4.537c2.312-2.734,4.479-5.584,4.479-5.584l53.161,1.541s.9,3.824,1.614,7.736a28.022,28.022,0,0,1,.742,7.75,7.008,7.008,0,0,0,1.454,5.365l.96,8.725Z" transform="translate(250.562 306.703)" fill="#65617d"></path><path id="Path_129" data-name="Path 129" d="M991.8,832.828c-.64,2.574-1.454,7.183-1.759,9.35l-.189,1.192s-4.362,9.466-28.165,12.912-23.876-7.968-23.876-7.968.087-1.221.233-3.068c.422-5.031,1.279-14.672,1.919-16.722.843-2.792-.654-15.064-.654-15.064l-.247-12.81-.189-8.9,39.595-4.1a71.867,71.867,0,0,0,1.279,8.812,11.268,11.268,0,0,0,1.73,4.522c2.152,2.37,3.432,12.912,3.432,12.912S992.658,829.382,991.8,832.828Z" transform="translate(305.823 307.934)" fill="#65617d"></path><path id="Path_130" data-name="Path 130" d="M912.982,786.54s.9,3.824,1.614,7.736c-5.744,1.062-30.841,5.409-37.108,2.37-7.11-3.446-22.378-5.38-22.378-5.38l.247-.872c2.312-2.734,4.479-5.584,4.479-5.584Z" transform="translate(268.27 306.644)" opacity="0.1"></path><path id="Path_131" data-name="Path 131" d="M979.423,796.462c-10.033-1.7-31.99,2.414-40.714,4.188l-.189-8.9,39.594-4.1A71.874,71.874,0,0,0,979.423,796.462Z" transform="translate(306.145 307.934)" opacity="0.1"></path><path id="Path_132" data-name="Path 132" d="M1040.835,610.148l-.858,30.332s1.076,46.254-2.152,53.568-3.228,36.788-3.228,36.788,2.152,13.974-.218,16.984-.64,14.192,1.076,20.008.218,20.226.218,20.226l-.436,81.312s-2.356,21.07-5.38,24.094a7.052,7.052,0,0,0-1.716,6.878s-2.574,12.04-1.934,14.206,1.934,7.1-3.01,9.451-3.664,9.9-3.664,9.9c-11.822-2.806-45.382,4.74-45.382,4.74a201.905,201.905,0,0,1-9.466-23.033,11.909,11.909,0,0,1,8.608-15.689c4.508-.654-3.228-8.608-3.228-8.608s.858-1.076-1.294-8.812.422-27.628,1.076-32.717,3.868-30.114,3.868-30.114-1.716-31.612-.422-32.906,5.584-13.77,3.446-17.856-5.613-30.972-5.613-32.484-2.777-36.352-2.777-36.352-2.588-24.312-1.934-29.474-1.73-24.3-1.73-24.3c0-15.995-9.248-33.138-9.248-33.138l-.233.625L935.269,666.3s-3.228,15.908-6.02,24.938a163.129,163.129,0,0,0-4.2,18.685l-.189,1.149a7.274,7.274,0,0,1-.189,1.207l-.131.872h0s1.454,11.4-.872,15.064-4.944,14.628-4.944,17.638.218,14.628.218,14.628.858,23.018-1.454,25.606-1.091,4.726-1.091,4.726,3.868,17.449,2.152,21.942-.422,15.05-.422,15.05-3.446,33.357-3.868,35.072-2.806,15.064-.218,16.14,7.518,7.518,7.518,7.518,1.091,28.195-2.792,30.332-1.73,13.087-1.73,13.087-31.175,6.02-38.271,2.574-22.378-5.38-22.378-5.38l2.137-7.067c-.131.247-1.556,2.545-2.574-6.267-1.061-9.248,7.968-4.74,7.968-4.74s7.1,1.73-4.362-9.451-5.816-22.6-5.162-22.6,2.167-16.547,2.167-16.547,1.934-9.9.422-17.653-2.792-31.844-2.792-31.844,1.076-18.278-.858-24.937,1.28-18.729,1.934-21.52-2.006-28.325-2.006-28.325,2.152-12.04.858-20.852,1.294-41.31,1.294-41.31l3.868-37.428s2.792-11.633,2.37-16.358,3.243-21.288,3.243-21.288a23.264,23.264,0,0,1,1.716-10.324c2.152-4.362,3.01-18.5,3.01-18.5l20.663-47.33,10.179-41.732,136.582-1.294s.509,3.621,1.338,10.179,1.992,16.3,3.286,28.325c1.192,10.92,2.5,23.76,3.766,38.053C1049.559,601.976,1040.835,610.148,1040.835,610.148Z" transform="translate(267.053 168.141)" fill="#3f3d56"></path><path id="Path_133" data-name="Path 133" d="M996.014,321.38l-31.844,34s-40.86-16.358-36.556-21.942c1.658-2.167,1.454-9,.436-16.533-1.454-11.923-4.74-25.635-4.74-25.635s71.41-11.633,65.434.422c-2.2,4.362-1.818,9.539-.451,14.294A53.8,53.8,0,0,0,996.014,321.38Z" transform="translate(299.238 80.245)" fill="#fbbebe"></path><path id="Path_134" data-name="Path 134" d="M988.7,291.711c-2.2,4.362-3.243,4.828-1.876,9.582-9.335,9.99-21.215,20.953-35.989,20.953a50.979,50.979,0,0,1-22.785-5.336c-1.454-11.923-4.74-25.635-4.74-25.635S994.72,279.642,988.7,291.711Z" transform="translate(299.238 80.251)" opacity="0.1"></path><path id="Path_135" data-name="Path 135" d="M1009.443,290.992a51.209,51.209,0,1,1-102.418,0c.007-.247.007-.494.007-.727a51.2,51.2,0,1,1,102.4.727Z" transform="translate(291.844 58.998)" fill="#fbbebe"></path><path id="Path_136" data-name="Path 136" d="M1027.514,516.034c-6.776,0-29.358.247-54.6.64h-.305l-8.332.145h-.262c-29.925.48-59.428-5.366-71.25-4.26-25.155,2.356,9.044-23.265,9.044-23.265a210.521,210.521,0,0,0,57.334,5.816l7.27-.378c22.858-1.294,45.847-3.446,57.858-7.052C1025.071,494.34,1026.22,504.009,1027.514,516.034Z" transform="translate(281.174 171.724)" opacity="0.1"></path><path id="Path_137" data-name="Path 137" d="M1027.514,515.14c-6.776,0-29.358.247-54.6.64h-.305l-8.332.145h-.262c-29.925.48-59.428-5.366-71.25-4.26-25.155,2.37,9.044-23.265,9.044-23.265a210.522,210.522,0,0,0,57.334,5.816l7.27-.378c22.858-1.294,45.847-3.446,57.858-7.038C1025.071,493.46,1026.22,503.086,1027.514,515.14Z" transform="translate(281.174 171.324)" fill="#5f5d7e"></path><path id="Path_138" data-name="Path 138" d="M954.676,322.576l-39.58,18.51L884.56,577.272s18.06-8.172,28.4-3.01,42.168.436,42.168.436,23.265-1.294,26.682,1.294,43.855-10.818,43.855-10.818,7.271-16.344,1.716-18.9,1.774-27.933,1.774-27.933l-3.49-170.374-6.892-21.942-18.5-11.182-18.9,15.05-9.03,1.294Z" transform="translate(281.643 93.241)" opacity="0.1"></path><path id="Path_139" data-name="Path 139" d="M954.676,320.81l-39.58,18.5-30.536,236.2s18.06-8.172,28.4-3.01,42.168.422,42.168.422,23.265-1.28,26.682,1.294,43.884-10.76,43.884-10.76,7.27-16.344,1.716-18.9,1.745-28.006,1.745-28.006l-3.49-170.36-6.892-21.927-18.5-11.2-18.9,15.064-9.03,1.294Z" transform="translate(281.643 92.433)" fill="#e7effd"></path><path id="Path_140" data-name="Path 140" d="M941.943,327.033s11.4,13.552,11.2,16.358-.654,9.466-.654,9.466l-8.608,17.449s-4.726,21.724-4.726,26.246-7.532,43.622-7.532,43.622l-9.059,60.242-11.4,78.956,11.633,19.994,13.756-11.633,18.292-140.7,3.868-27.744s4.086-49.9,4.086-55.066-2.356-18.714-2.356-18.714,2.792-12.912,14.41-15.995-.858-.654-.858-.654l-6.674-5.366-5.816,2.356S945.389,321.014,941.943,327.033Z" transform="translate(293.721 97.173)" opacity="0.1"></path><path id="Path_141" data-name="Path 141" d="M941.044,326.126s11.414,13.552,11.2,16.344-.654,9.466-.654,9.466l-8.594,17.449s-4.74,21.724-4.74,26.246-7.532,43.622-7.532,43.622l-9.03,60.228-11.4,78.957,11.633,20.008,13.77-11.633,18.278-140.682,3.882-27.729s4.086-49.9,4.086-55.066-2.356-18.714-2.356-18.714,2.792-12.912,14.41-15.922-.858-.64-.858-.64l-6.674-5.38-5.816,2.37S944.49,320.092,941.044,326.126Z" transform="translate(293.326 96.801)" fill="#6c63ff"></path><path id="Path_142" data-name="Path 142" d="M928.958,309.51s-1.73,1.294-2.152,9.9-6.456,27.962-6.456,27.962,22.378-15.486,33.56-13.77Z" transform="translate(297.894 90.821)" opacity="0.1"></path><path id="Path_143" data-name="Path 143" d="M928.958,307.74s-1.73,1.28-2.152,9.888-6.456,27.962-6.456,27.962,22.378-15.486,33.56-13.756Z" transform="translate(297.894 90.017)" fill="#e7effd"></path><path id="Path_144" data-name="Path 144" d="M979.305,304.78,944,335.752s29.692,17.638,33.56,21.942,7.736-42.168,7.736-42.168Z" transform="translate(308.633 88.673)" opacity="0.1"></path><path id="Path_145" data-name="Path 145" d="M980.186,303,944.91,333.986s29.678,17.638,33.575,21.942,7.736-42.168,7.736-42.168Z" transform="translate(309.047 87.865)" fill="#e7effd"></path><path id="Path_146" data-name="Path 146" d="M959.167,309.611s-3.868-1.934-7.518,3.664a24.429,24.429,0,0,1-10.542,8.172s-39.158,6.238-40.714,11.4L882.1,333.923s-6.456.858-7.1,14.41-4.086,14.846-4.086,14.846-7.532,13.334-6.878,20.212-5.816,10.338-5.816,10.338l26.886,69.912s.872,28.82-4.086,39.362-14.192,57.218-14.192,57.218,3.868-.858,3.65,1.716-4.595,30.768-4.595,30.768-1.294,11.182-3.446,15.064-2.37,24.08-2.37,24.08l-3.432,14.628s8.172,18.292,20.648,15.7,35.058-51.4,35.058-51.4l14.424-52.71,11.182-52.056,3.228-35.276,5.162-78.084,7.532-51.634S962.192,313.232,959.167,309.611Z" transform="translate(268.965 90.72)" opacity="0.1"></path><path id="Path_147" data-name="Path 147" d="M958.333,307.841s-3.882-1.934-7.532,3.65a24.3,24.3,0,0,1-10.542,8.172s-39.144,6.238-40.714,11.4l-18.292,1.076s-6.442.872-7.1,14.424-4.086,14.832-4.086,14.832-7.532,13.348-6.878,20.226-5.816,10.324-5.816,10.324l26.9,69.912s.858,28.82-4.086,39.362-14.206,57.233-14.206,57.233,3.868-.872,3.664,1.716-4.74,30.754-4.74,30.754-1.294,11.2-3.446,15.064-2.356,24.094-2.356,24.094l-3.446,14.628s8.172,18.278,20.648,15.7S911.409,609,911.409,609l14.41-52.7L937,504.243l3.228-35.29,5.162-78.084,7.532-51.62S961.343,311.491,958.333,307.841Z" transform="translate(268.52 89.916)" fill="#65617d"></path><path id="Path_148" data-name="Path 148" d="M848.023,434.668l-12.476,8.608s-19.078.611-32.717-2.748l-6.936-3.083-1.454-.611,1.454.451c7.2,2.138,12.825,2.094,17.231.611,17.653-5.947,15.7-35.1,15.021-41.688a5.512,5.512,0,0,0-.145-1.25.408.408,0,0,1,0-.087l.1.174a9.63,9.63,0,0,0,.814,1.134c.247.276.509.567.785.843h0l6.238,12.461v.523Z" transform="translate(240.721 129.581)" opacity="0.1"></path><path id="Path_149" data-name="Path 149" d="M890.815,364.4l-6.034,1.716-.858,12.258s-7.1-1.076-9.03,7.27-5.38,12.272-5.38,12.272-11.836,9.888-12.476,18.278l-7.27,4.522s-17-3.882-20.866-10.76c0,0,7.75,55.5-33.56,41.95,0,0,46.254,20.212,48.406,23.018S860.09,485.888,873,479.01s15.7-17.449,15.7-17.449,12.476-17.449,12.9-20.008,10.179-5.6,10.179-5.6l18.5-44.742Z" transform="translate(241.13 115.745)" fill="#65617d"></path><path id="Path_150" data-name="Path 150" d="M966.233,331.4l6.238-28.4s2.792,9.248,5.6,11.4l9.248,7.11s9.248,4.29,12.476,4.29,20.648,4.522,22.8,6.892,10.76.64,10.76.64,7.1,2.37,13.334,3.868,9.248,11.836,7.954,15.995a12.4,12.4,0,0,0,3.01,11.633c2.588,2.588,3.883,10.978,3.883,10.978a12.593,12.593,0,0,1,7.271,6.238c2.152,4.726,1.454,15.05,1.454,15.05l-31.99,45.178s.422,17.449-.858,21.3,4.508,69.694,4.508,69.694l6.674,113.142s-8.826,7.532-10.76,8.39-3.868-40-3.868-41.514-49.686-74.434-49.686-74.434-6.674-10.746-6.674-13.087-6.238-24.094-6.238-24.094l-9.466-41.95Z" transform="translate(316.761 87.865)" opacity="0.1"></path><path id="Path_151" data-name="Path 151" d="M1072.144,394.607v2.472l-31.99,45.076h0s.436,17.449-.843,21.288c-.756,2.254.887,25.4,2.414,44.422,1.076,13.712,2.094,25.272,2.094,25.272l2.835,47.985,3.824,65.143s-8.812,7.532-10.746,8.39-3.868-40-3.868-41.514-49.7-74.42-49.7-74.42-6.674-10.775-6.674-13.087-6.238-24.094-6.238-24.094L963.8,459.59l4.29-128.206L971.608,303s5.38,9.262,8.172,11.4l9.248,7.1s9.248,4.362,12.476,4.362,20.663,4.508,22.815,6.878,10.746.64,10.746.64,7.1,2.37,13.334,3.868,9.263,11.836,7.968,15.995a12.374,12.374,0,0,0,3.01,11.633c2.574,2.574,3.868,10.964,3.868,10.964a12.65,12.65,0,0,1,7.27,6.252C1072.056,385.214,1072.2,391.19,1072.144,394.607Z" transform="translate(317.624 87.865)" fill="#65617d"></path><path id="Path_152" data-name="Path 152" d="M857.48,760.14c1.061,0,46.24,1.716,45.382,9.03S857.48,760.14,857.48,760.14Z" transform="translate(269.346 295.442)" opacity="0.1"></path><path id="Path_153" data-name="Path 153" d="M864.43,768.57s30.332,4.944,22.364,9.466S864.43,768.57,864.43,768.57Z" transform="translate(272.502 299.27)" opacity="0.1"></path><path id="Path_154" data-name="Path 154" d="M942,756.88s50.34,4.362,42.808,9.9-25.388,6.442-26.173,6.66S942,756.88,942,756.88Z" transform="translate(307.725 293.962)" opacity="0.1"></path><path id="Path_155" data-name="Path 155" d="M937.81,772.12s27.962,4.726,28.82,10.179S937.81,772.12,937.81,772.12Z" transform="translate(305.823 300.882)" opacity="0.1"></path><path id="Path_156" data-name="Path 156" d="M948.46,683.06s25.592,6.02,27.1,10.179Z" transform="translate(310.658 260.442)" opacity="0.1"></path><path id="Path_157" data-name="Path 157" d="M882.44,695.78s-13.334,3.868-.422,11.633S882.44,695.78,882.44,695.78Z" transform="translate(277.932 266.218)" opacity="0.1"></path><path id="Path_158" data-name="Path 158" d="M921.24,555.238c1.454,0,24.952-7.736,33.124-4.362a54.509,54.509,0,0,0,18.278,3.475Z" transform="translate(298.299 200.033)" opacity="0.1"></path><path id="Path_159" data-name="Path 159" d="M932.818,574.162l-.233,2.137L912.592,628.82s-3.228,15.908-6.02,24.938a163.142,163.142,0,0,0-4.2,18.685l17.754-110.1Z" transform="translate(289.73 205.625)" opacity="0.1"></path><path id="Path_160" data-name="Path 160" d="M949,513.578l-8.332.145h-.262l-4.886-21.68,7.27-.393Z" transform="translate(304.783 173.527)" fill="#3f3d56"></path><path id="Path_161" data-name="Path 161" d="M1041.638,495.132l-5.365,4.362-17.871,14.73s-48.406,25.824-61.74,1.294c-11.749-21.608,43.128-37.035,56.346-40.394,1.788-.451,2.806-.683,2.806-.683Z" transform="translate(313.639 165.712)" fill="#fbbebe"></path><path id="Path_162" data-name="Path 162" d="M872.42,343.24s9.466,4.362,11.633,10.324S872.42,343.24,872.42,343.24Z" transform="translate(276.13 106.137)" opacity="0.1"></path><path id="Path_163" data-name="Path 163" d="M855.27,387.62S841.5,404.4,847.1,410.885,855.27,387.62,855.27,387.62Z" transform="translate(264.024 126.289)" opacity="0.1"></path><path id="Path_164" data-name="Path 164" d="M1025.7,349.75s-12.912,1.294-13.334,12.476Z" transform="translate(339.679 109.093)" opacity="0.1"></path><path id="Path_165" data-name="Path 165" d="M939.29,484.032c1.28-1.294,30.972-45.178,37.806-41.3Z" transform="translate(306.495 151.205)" opacity="0.1"></path><path id="Path_166" data-name="Path 166" d="M1009.441,290.992a50.893,50.893,0,0,1-6.063,24.167l-.378-.073c-3.243-.683-4.929-4.464-7.416-6.82a10.077,10.077,0,0,0-11.633-1.629,11.822,11.822,0,0,0-5.7,11.036c-1.643-6.892-1.12-14.206-2.719-21.113s-6.412-13.886-13.014-14c-2.908,0-6.151,1.032-8.216-1.091-1.236-1.28-1.454-3.3-2.414-4.871-4.711-7.619-19.063-3.766-24.923.145s-12.65,10.179-19.935,13.523a51.2,51.2,0,1,1,102.4.727Z" transform="translate(291.846 58.998)" opacity="0.1"></path><path id="Path_167" data-name="Path 167" d="M955.94,283.94c.931,1.556,1.178,3.577,2.414,4.857,2.05,2.137,5.38,1.032,8.216,1.091,6.6.116,11.414,7.1,13.014,14S980.659,318.111,982.3,325a11.793,11.793,0,0,1,5.714-11.036,10.077,10.077,0,0,1,11.633,1.629c2.486,2.356,4.173,6.136,7.416,6.82s6.369-2.428,7.547-5.816,1.091-7.169,1.861-10.717c1.454-6.7,5.816-12.214,8.259-18.6a33.691,33.691,0,0,0-.218-24.021c-1.614-4.042-4.013-7.678-5.657-11.705-2.472-6.136-3.112-13.087-6.136-18.9-5.06-9.786-16.984-14.672-26.8-10.993-4.668,1.745-8.724,5.147-13.479,6.674-6.354,2.05-13.159.509-19.732-.407s-13.857-1-19.15,3.315c-6.093,4.987-7.75,14.352-13.479,19.819-2.4,2.3-5.38,3.766-7.91,5.816s-4.726,5.278-4.362,8.724c.378,4.449,4.74,8.492,3.126,12.621a10.176,10.176,0,0,1-2.385,3.155,44.975,44.975,0,0,0-10.411,17.711C909.642,302.7,922.1,290,931.119,284,936.891,280.174,951.229,276.307,955.94,283.94Z" transform="translate(287.809 50.375)" fill="#7c5c5c"></path><path id="Path_168" data-name="Path 168" d="M1023.794,495.132l-5.366,4.362c-4.726-7.852-24.109-23.556-24.109-23.556l.843-.814c1.788-.451,2.806-.683,2.806-.683Z" transform="translate(331.483 165.712)" opacity="0.1"></path><path id="Path_169" data-name="Path 169" d="M1028.552,489.3s-1.934,4.8-3.911,8.928-4.159,7.91-4.26,4.842c-.218-6.02-25.17-26.246-25.17-26.246l3.388-3.286,3.911-3.81Z" transform="translate(331.887 163.573)" fill="#e7effd"></path><path id="Path_170" data-name="Path 170" d="M1029.346,469.182l2.835,47.985c-6.689-10.4-25.039-37.035-36.832-36.178l28.573-32.877a38.953,38.953,0,0,0,3.286-4.2C1028.285,457.622,1029.346,469.182,1029.346,469.182Z" transform="translate(331.95 151.849)" opacity="0.1"></path><path id="Path_171" data-name="Path 171" d="M1027.494,489.311s-1.934,4.8-3.912,8.928c-7.5-10.28-17.812-22.422-26.043-24.719l3.911-3.81Z" transform="translate(332.945 163.564)" opacity="0.1"></path><path id="Path_172" data-name="Path 172" d="M1049.6,363.51l7.75,6.02s12.9.218,14.192,10.978,13.087,15.7,13.087,15.7,8.812,8.812,8.812,12.9,6.674,11.4,6.674,12.054,6.456,13.77,5.584,16.126,6.892,12.694,4.522,16.562a95.393,95.393,0,0,0-5.162,10.76s-10.106,19.368-15.268,23.018-28.834,34.418-28.834,34.418-25.374,29.256-25.374,38.286c0,0-24.719-41.3-39.377-40.22l28.616-32.92s4.944-5.366,5.162-8.594,13.77-18.074,20.226-18.714c0,0,1.062-8.826-1.73-9.044s-5.162-7.1-5.162-7.1-18.9-22.364-19.15-36.57S1049.6,363.51,1049.6,363.51Z" transform="translate(332.341 115.341)" fill="#65617d"></path><path id="Path_173" data-name="Path 173" d="M1045.372,377.56s-18.06,13.348-14.192,17.638S1045.372,377.56,1045.372,377.56Z" transform="translate(347.973 121.721)" opacity="0.1"></path><path id="Path_174" data-name="Path 174" d="M1041.36,416.933s33.56-10.76,37.006,0Z" transform="translate(352.842 137.428)" opacity="0.1"></path><path id="Path_175" data-name="Path 175" d="M935.853,809.436s-18.074,11.836-27.1,10.179-18.292,3.024-18.292,3.024a54.5,54.5,0,0,1-22.814,14.846c-14.541,4.944-35.043,3-46.661-.872-5.5-1.832-5.947-4.188-3.3-7.11,12.636,2.516,40.86,7.532,48.464,3.882,9.888-4.74,24.094-15.064,24.094-15.064s18.51-2.574,21.084-2.574c1.832,0,16.126-5.9,24.2-9.277Z" transform="translate(250.562 316.479)" opacity="0.1"></path><path id="Path_176" data-name="Path 176" d="M990.041,825.15l-.189,1.192s-4.362,9.466-28.165,12.912-23.876-7.968-23.876-7.968.087-1.221.233-3.068C945.6,831.083,962.093,834.282,990.041,825.15Z" transform="translate(305.823 324.962)" opacity="0.1"></path><path id="Path_177" data-name="Path 177" d="M880.24,375.79s0,49.046-4.2,53.888S880.24,375.79,880.24,375.79Z" transform="translate(277.239 120.917)" opacity="0.1"></path><path id="Path_178" data-name="Path 178" d="M1011.92,386.66l6.238,17.536S1020.645,386.98,1011.92,386.66Z" transform="translate(339.474 125.853)" opacity="0.1"></path><g id="Group_4" data-name="Group 4" transform="translate(1185.848 312.155)" opacity="0.1"><path id="Path_179" data-name="Path 179" d="M908.507,261.2c1.57-4.042-2.559-8-3.1-12.331a8.085,8.085,0,0,0-.683,3.9c.276,3.257,2.675,6.3,3.315,9.321A5.824,5.824,0,0,0,908.507,261.2Z" transform="translate(-895.057 -248.87)"></path><path id="Path_180" data-name="Path 180" d="M982.916,303.288c-1.541-6.776-1.091-13.959-2.661-20.75s-6.412-13.886-13-14c-2.908,0-6.165,1.047-8.216-1.076-1.25-1.28-1.454-3.315-2.428-4.871-4.711-7.634-19.048-3.766-24.923.145-8.725,5.816-20.881,18.074-32.164,15.311-.538,1.294-1.033,2.617-1.454,3.97,11.5,3.606,23.963-9.088,32.978-15.093,5.816-3.9,20.212-7.765,24.923-.131.931,1.556,1.178,3.577,2.414,4.857,2.05,2.138,5.38,1.032,8.216,1.091,6.6.116,11.414,7.1,13.014,14s1.076,14.221,2.719,21.113A11.866,11.866,0,0,1,982.916,303.288Z" transform="translate(-898.07 -244.63)"></path><path id="Path_181" data-name="Path 181" d="M988.747,284.847c-1.163,3.4-4.231,6.543-7.547,5.816s-4.929-4.464-7.4-6.834a10.179,10.179,0,0,0-11.633-1.614,11.72,11.72,0,0,0-5.714,10.411,11.283,11.283,0,0,1,5.075-6.224,10.077,10.077,0,0,1,11.633,1.629c2.487,2.356,4.173,6.136,7.416,6.82s6.369-2.428,7.547-5.816a29.394,29.394,0,0,0,1.178-6.18,16.106,16.106,0,0,1-.552,1.992Z" transform="translate(-871.562 -234.245)"></path><path id="Path_182" data-name="Path 182" d="M988.394,264.986c-2.414,6.383-6.8,11.88-8.259,18.6-.291,1.352-.465,2.734-.625,4.13,1.454-6.689,5.816-12.171,8.245-18.539a33.165,33.165,0,0,0,1.992-8.914A32.551,32.551,0,0,1,988.394,264.986Z" transform="translate(-861.09 -243.698)"></path></g><circle id="Ellipse_5" data-name="Ellipse 5" cx="0.523" cy="0.523" r="0.523" transform="translate(1001.761 488.157)" fill="#e6e8ec"></circle><ellipse id="Ellipse_6" data-name="Ellipse 6" cx="125.545" cy="12.81" rx="125.545" ry="12.81" transform="translate(1062.484 1139.235)" fill="#6c63ff" opacity="0.1"></ellipse><path id="Path_183" data-name="Path 183" d="M700.826,251.167,320.57,497.866,568.723,945.431a17.318,17.318,0,0,0,11.051,8.434l224.844,54.848a17.333,17.333,0,0,0,19.688-9.321L935.834,767.685l122.23-163.395L768,261.127a51.4,51.4,0,0,0-67.178-9.96Z" transform="translate(25.547 60.581)" fill="#dcdfed"></path><path id="Path_184" data-name="Path 184" d="M1060.729,605.627l-1.076,1.454-71.6,95.722-1.294,1.73L938.5,769.051,843.111,967.256l-2.676,5.54-13.465,27.962a17.333,17.333,0,0,1-19.717,9.321L582.409,955.2a17.289,17.289,0,0,1-11.051-8.434l-21.622-38.926-3.882-7.009-156.066-281.6-1.338-2.4L323.22,499.2l7.881-5.118,59.748-38.751,1.381-.9L518.052,372.8l7.939-5.147L703.461,252.5a51.387,51.387,0,0,1,67.208,9.946l132.321,156.6,5.816,6.98,96.042,113.622.524.625,48.29,57.116,6.078,7.2Z" transform="translate(26.751 61.178)" opacity="0.1"></path><path id="Path_185" data-name="Path 185" d="M983.209,500.408l-11.72,81.428-3.533,24.574-2.021,52.347-.16,4.086L955.262,936.356a17.347,17.347,0,0,1-21.1,16.242L820.832,927.3l-1.221-.276L528.955,862.154l-5.336-1.192L363.83,825.278l3.664-245.914.116-8.216,1.105-74.434,1.221-82.155,125.821-81.632,7.939-5.147c116.7,11.967,271.913,34.985,377.057,51.4l5.816,6.98L982.54,499.783Z" transform="translate(45.191 99.117)" opacity="0.1"></path><path id="Path_186" data-name="Path 186" d="M996.939,404.538l-13.8,95.969-12.651,87.884-3.533,24.516-2.021,52.347-10.673,277.6a17.347,17.347,0,0,1-21.1,16.242L818.611,933.517,527.955,868.651,362.83,831.776l3.781-254.129,1.105-74.434,1.294-87.07,1.323-89.557c27.308-1.294,72.239,1.629,125.88,7.023C616.32,345.663,780.049,370.047,887.1,386.842,952.648,397.122,996.939,404.538,996.939,404.538Z" transform="translate(44.737 98.436)" fill="#6363ff"></path><path id="Path_187" data-name="Path 187" d="M1051.138,518.042l-61.464,30.143L675.986,702.027,386.9,463.107,328.461,414.73l-7.881,5.118,65.23,117.635-3.781,254.129,165.125,36.875,21.578,38.926a17.289,17.289,0,0,0,11.051,8.434L804.628,930.7a17.333,17.333,0,0,0,19.674-9.321l13.465-27.962L952.319,918.99a17.347,17.347,0,0,0,21.1-16.242l10.673-277.6,72.893-97.423.2-2.457Z" transform="translate(25.552 138.599)" opacity="0.1"></path><path id="Path_188" data-name="Path 188" d="M328.676,418.25,302.749,862.224a17.332,17.332,0,0,0,13.537,17.929l688.535,152.9a17.332,17.332,0,0,0,20.982-15.515l40.351-492.86L684.1,712.061Z" transform="translate(17.442 140.197)" fill="#dcdfed"></path><path id="Path_189" data-name="Path 189" d="M306.447,800.674l357.7-220.685a26.261,26.261,0,0,1,33.444,5.235l320.159,373.393c1.163,1.338,1.73.378,0,0L306.447,800.674C304.411,800.224,304.673,801.736,306.447,800.674Z" transform="translate(18.485 211.911)" opacity="0.1"></path><path id="Path_190" data-name="Path 190" d="M308.34,798.35,662.349,584.5a27.759,27.759,0,0,1,35.305,5.555L1014.92,954.925a3.824,3.824,0,0,1-3.708,6.238L309.488,805.344a3.81,3.81,0,0,1-1.149-6.994Z" transform="translate(19.151 213.871)" fill="#e3e5f1"></path></g></g></svg>